<?xml version="1.0" encoding="UTF-8" standalone="no"?>
<svg xmlns:dc="http://purl.org/dc/elements/1.1/" xmlns:cc="http://creativecommons.org/ns#" xmlns:rdf="http://www.w3.org/1999/02/22-rdf-syntax-ns#" xmlns:svg="http://www.w3.org/2000/svg" xmlns="http://www.w3.org/2000/svg" id="svg1338" version="1.1" viewBox="0 0 52.916668 52.916668" height="52.916668mm" width="52.916668mm">
  <defs id="defs1332" />
  <metadata id="metadata1335">
    <rdf:RDF>
      <cc:Work rdf:about="">
        <dc:format>image/svg+xml</dc:format>
        <dc:type rdf:resource="http://purl.org/dc/dcmitype/StillImage" />
        <dc:title></dc:title>
      </cc:Work>
    </rdf:RDF>
  </metadata>
  <g transform="translate(172.35715,-135.98213)" id="layer1">
    <g id="g1330" transform="matrix(1.33985,0,0,1.33985,103.69768,43.40212)">
      <path style="opacity:1;fill:none;fill-opacity:1;stroke:#000000;stroke-width:2;stroke-linecap:round;stroke-linejoin:round;stroke-miterlimit:4;stroke-dasharray:none;stroke-opacity:1" id="path1323" d="m -197.76567,101.3638 a 16.437077,16.437077 0 0 1 -3.7645,-17.914689 16.437077,16.437077 0 0 1 15.14213,-10.287045 16.437077,16.437077 0 0 1 15.26762,10.099861 16.437077,16.437077 0 0 1 -3.54368,17.959673" />
      <g id="text1317" style="font-style:normal;font-variant:normal;font-weight:bold;font-stretch:normal;font-size:23.56645203px;line-height:1.25;font-family:Montserrat;-inkscape-font-specification:'Montserrat Bold';letter-spacing:0px;word-spacing:0px;fill:#000000;fill-opacity:1;stroke:none;stroke-width:1.10467744" aria-label="4">
        <path id="path1915" style="font-style:normal;font-variant:normal;font-weight:bold;font-stretch:normal;font-family:Montserrat;-inkscape-font-specification:'Montserrat Bold';stroke-width:1.10467744" d="m -178.63959,89.839175 h -2.68658 V 86.75197 h -3.60566 v 3.087205 h -4.4305 l 7.21134,-9.921476 h -4.0063 l -7.77693,10.463504 v 2.568744 h 8.88455 v 3.464268 h 3.7235 v -3.464268 h 2.68658 z" />
      </g>
      <path d="m -193.04596,101.64815 v 0.373 c -0.2238,-0.27176 -0.55417,-0.40497 -0.94315,-0.40497 -0.83125,0 -1.4387,0.57548 -1.4387,1.45469 0,0.88453 0.60745,1.46001 1.4387,1.46001 0.36234,0 0.68205,-0.12255 0.91118,-0.38365 v 1.38009 h 0.66606 v -3.87917 z m -0.86855,2.31258 c -0.47957,0 -0.84191,-0.34635 -0.84191,-0.88986 0,-0.54351 0.36234,-0.88987 0.84191,-0.88987 0.4849,0 0.84723,0.34636 0.84723,0.88987 0,0.54351 -0.36233,0.88986 -0.84723,0.88986 z" style="font-style:normal;font-variant:normal;font-weight:600;font-stretch:normal;font-size:medium;line-height:1.25;font-family:Montserrat;-inkscape-font-specification:'Montserrat Semi-Bold';letter-spacing:0px;word-spacing:0px;fill:#000000;fill-opacity:1;stroke:none;stroke-width:0.2497745" id="path1918" />
      <path d="m -189.45162,101.64815 v 1.4387 c 0,0.57016 -0.31439,0.8579 -0.77797,0.8579 -0.42095,0 -0.66606,-0.24512 -0.66606,-0.76198 v -1.53462 h -0.66607 v 1.6252 c 0,0.85789 0.49556,1.25753 1.22556,1.25753 0.36767,0 0.70337,-0.13854 0.91651,-0.39964 v 0.36234 h 0.63409 v -2.84543 z" style="font-style:normal;font-variant:normal;font-weight:600;font-stretch:normal;font-size:medium;line-height:1.25;font-family:Montserrat;-inkscape-font-specification:'Montserrat Semi-Bold';letter-spacing:0px;word-spacing:0px;fill:#000000;fill-opacity:1;stroke:none;stroke-width:0.2497745" id="path1920" />
      <path d="m -186.82125,101.61618 c -0.45825,0 -0.90052,0.11723 -1.20424,0.35168 l 0.26109,0.4849 c 0.21315,-0.17584 0.54351,-0.28241 0.86323,-0.28241 0.47423,0 0.70869,0.22912 0.70869,0.61811 v 0.0426 h -0.73534 c -0.86322,0 -1.18293,0.373 -1.18293,0.84724 0,0.49555 0.4103,0.85256 1.06038,0.85256 0.42628,0 0.73533,-0.13854 0.89519,-0.38365 v 0.34635 h 0.62876 v -1.66782 c 0,-0.8206 -0.47423,-1.20958 -1.29483,-1.20958 z m -0.0906,2.42981 c -0.34103,0 -0.54351,-0.15453 -0.54351,-0.39431 0,-0.20782 0.12256,-0.37833 0.57548,-0.37833 h 0.68738 v 0.33037 c -0.1119,0.29307 -0.39431,0.44227 -0.71935,0.44227 z" style="font-style:normal;font-variant:normal;font-weight:600;font-stretch:normal;font-size:medium;line-height:1.25;font-family:Montserrat;-inkscape-font-specification:'Montserrat Semi-Bold';letter-spacing:0px;word-spacing:0px;fill:#000000;fill-opacity:1;stroke:none;stroke-width:0.2497745" id="path1922" />
      <path d="m -183.14765,103.86482 c -0.10124,0.0799 -0.23445,0.11723 -0.37299,0.11723 -0.25577,0 -0.39431,-0.1492 -0.39431,-0.42629 v -1.35344 h 0.76197 v -0.53285 h -0.76197 v -0.65008 h -0.66607 v 0.65008 h -0.46891 v 0.53285 h 0.46891 v 1.36943 c 0,0.62876 0.35701,0.95913 0.98045,0.95913 0.23978,0 0.47957,-0.0639 0.63942,-0.19182 z" style="font-style:normal;font-variant:normal;font-weight:600;font-stretch:normal;font-size:medium;line-height:1.25;font-family:Montserrat;-inkscape-font-specification:'Montserrat Semi-Bold';letter-spacing:0px;word-spacing:0px;fill:#000000;fill-opacity:1;stroke:none;stroke-width:0.2497745" id="path1924" />
      <path d="m -181.77913,102.06378 v -0.41563 h -0.6341 v 2.84543 h 0.66607 v -1.38008 c 0,-0.58081 0.31971,-0.87921 0.82592,-0.87921 0.048,0 0.0959,0.005 0.15453,0.016 v -0.6341 c -0.47424,0 -0.8206,0.1492 -1.01242,0.4476 z" style="font-style:normal;font-variant:normal;font-weight:600;font-stretch:normal;font-size:medium;line-height:1.25;font-family:Montserrat;-inkscape-font-specification:'Montserrat Semi-Bold';letter-spacing:0px;word-spacing:0px;fill:#000000;fill-opacity:1;stroke:none;stroke-width:0.2497745" id="path1926" />
      <path d="m -178.94885,104.53088 c 0.88453,0 1.51863,-0.60745 1.51863,-1.46001 0,-0.85257 -0.6341,-1.45469 -1.51863,-1.45469 -0.87388,0 -1.5133,0.60212 -1.5133,1.45469 0,0.85256 0.63942,1.46001 1.5133,1.46001 z m 0,-0.57015 c -0.47957,0 -0.84191,-0.34635 -0.84191,-0.88986 0,-0.54351 0.36234,-0.88987 0.84191,-0.88987 0.48489,0 0.84723,0.34636 0.84723,0.88987 0,0.54351 -0.36234,0.88986 -0.84723,0.88986 z" style="font-style:normal;font-variant:normal;font-weight:600;font-stretch:normal;font-size:medium;line-height:1.25;font-family:Montserrat;-inkscape-font-specification:'Montserrat Semi-Bold';letter-spacing:0px;word-spacing:0px;fill:#000000;fill-opacity:1;stroke:none;stroke-width:0.2497745" id="path1928" />
    </g>
  </g>
</svg>
